<mxfile host="app.diagrams.net" modified="2023-06-03T13:49:05.366Z" agent="Mozilla/5.0 (Macintosh; Intel Mac OS X 10_15_7) AppleWebKit/537.36 (KHTML, like Gecko) Chrome/114.0.0.0 Safari/537.36" version="21.3.7" etag="_U5OB4Y5JQ9dP0msqGAw" type="github">
  <diagram name="Page-1" id="3FjVD6lN992zsjDN6t8d">
    <mxGraphModel>
      <root>
        <mxCell id="0" />
        <mxCell id="1" parent="0" />
      </root>
    </mxGraphModel>
  </diagram>
</mxfile>
